D:\school\WTK\thesis\model\3dpredictsim\Results\debug_batch\Pog_s1_tmt_bCst_d05_k500_ig24_pas_GRF.mot
nRows=10
nColumns=19

name D:\school\WTK\thesis\model\3dpredictsim\Results\debug_batch\Pog_s1_tmt_bCst_d05_k500_ig24_pas_GRF.mot
datacolumns 19
datarows 10
range 0.5580881325 0.6585439963
endheader
time 	ground_force_vx	ground_force_vy	ground_force_vz	ground_force_px	ground_force_py	ground_force_pz	1_ground_force_vx	1_ground_force_vy	1_ground_force_vz	1_ground_force_px	1_ground_force_py	1_ground_force_pz	ground_torque_x	ground_torque_y	ground_torque_z	1_ground_torque_x	1_ground_torque_y	1_ground_torque_z
        0.5580881325	      100.5111982653	      495.9072418532	        4.1626798944	        0.3786756110	        0.0000000000	        0.0325306280	      -73.2760069015	       60.9388191550	      -29.2635933472	        0.8682282276	        0.0000000000	       -0.0376804223	        0.0000000000	        0.0000000000	        0.0000000000	        0.0000000000	        0.0000000000	        0.0000000000	
        0.5692498951	       81.5791736919	      415.7751667860	        9.4401246821	        0.3825173820	        0.0000000000	        0.0313565126	     -118.0075665720	      137.4879805861	      -75.2717829511	        0.8756157028	        0.0000000000	       -0.0352336191	        0.0000000000	        0.0000000000	        0.0000000000	        0.0000000000	        0.0000000000	        0.0000000000	
        0.5804116578	       58.5933882165	      319.9536211997	        9.9405670039	        0.3887330847	        0.0000000000	        0.0289247049	      -48.8511084934	      281.4156145168	      -33.7877246483	        0.8814542760	        0.0000000000	       -0.0326830865	        0.0000000000	        0.0000000000	        0.0000000000	        0.0000000000	        0.0000000000	        0.0000000000	
        0.5915734204	       30.8646753844	      216.2934232959	        5.7834232619	        0.4000718017	        0.0000000000	        0.0236004122	      -46.6783882585	      448.9511209168	       -4.2999096245	        0.8856191220	        0.0000000000	       -0.0327859321	        0.0000000000	        0.0000000000	        0.0000000000	        0.0000000000	        0.0000000000	        0.0000000000	
        0.6027351831	        9.7080462455	      143.5084640421	        8.8015656435	        0.4148533111	        0.0000000000	        0.0158240756	      -79.3433767402	      655.5014762096	        7.2553028096	        0.8943302253	        0.0000000000	       -0.0353212704	        0.0000000000	        0.0000000000	        0.0000000000	        0.0000000000	        0.0000000000	        0.0000000000	
        0.6138969457	        1.4025671218	      113.7124855763	        9.9466603808	        0.4144157047	        0.0000000000	        0.0162382585	     -105.9206104727	      799.9729881090	       12.6007292750	        0.9006386109	        0.0000000000	       -0.0371333684	        0.0000000000	        0.0000000000	        0.0000000000	        0.0000000000	        0.0000000000	        0.0000000000	
        0.6250587084	       -1.4246145108	       74.6660606720	        9.1900217548	        0.4149812365	        0.0000000000	        0.0163041962	     -114.8572446102	      857.5174153485	       13.6533643601	        0.9048393806	        0.0000000000	       -0.0382073940	        0.0000000000	        0.0000000000	        0.0000000000	        0.0000000000	        0.0000000000	        0.0000000000	
        0.6362204710	       -7.5638198133	       30.8416477592	        5.4101060799	        0.4146776943	        0.0000000000	        0.0162709168	     -111.3498011792	      858.0273869386	       13.4391189611	        0.9081272395	        0.0000000000	       -0.0388220879	        0.0000000000	        0.0000000000	        0.0000000000	        0.0000000000	        0.0000000000	        0.0000000000	
        0.6473822337	        0.0895512567	       -0.0889105097	       -0.0007285220	        0.0000000000	        0.0000000000	        0.0000000000	     -102.5442360013	      837.5370750502	       13.7158141612	        0.9114758855	        0.0000000000	       -0.0391149617	        0.0000000000	        0.0000000000	        0.0000000000	        0.0000000000	        0.0000000000	        0.0000000000	
        0.6585439963	        0.0001112362	       -0.0000907255	        0.0000072844	        0.0000000000	        0.0000000000	        0.0000000000	      -90.0405072138	      804.3393539063	       14.3677367578	        0.9149521254	        0.0000000000	       -0.0392219783	        0.0000000000	        0.0000000000	        0.0000000000	        0.0000000000	        0.0000000000	        0.0000000000	
